# xmcd
#
# Track frame offsets:
#	150
#	13185
#	25563
#	42040
#	62996
#	82458
#	97587
#	115651
#	133777
#	144798
#	153946
#	166461
#	189019
#
# Disc length: 2844 seconds
#
# Revision: 0
# Processed by: cddbd v1.5.1PL0 Copyright (c) Steve Scherf et al.
# Submitted via: dBpowerAMP V4.0
#
DISCID=990b1a0d
DTITLE=Fibrotown - S/T
DYEAR=2002
DGENRE=Country
TTITLE0=House From Hell
TTITLE1=Please Don't Cry
TTITLE2=Melody
TTITLE3=Torch Song
TTITLE4=Some Boys Don't Dance
TTITLE5=More Heartache Than Happiness
TTITLE6=Same Old Joke
TTITLE7=Feelin' Better
TTITLE8=King of the Rodeo
TTITLE9=You Don't Have To
TTITLE10=Truck Driving Woman
TTITLE11=(Under the) Drunken Moon
TTITLE12=Shut Your Mouth
EXTD=
EXTT0=
EXTT1=
EXTT2=
EXTT3=
EXTT4=
EXTT5=
EXTT6=
EXTT7=
EXTT8=
EXTT9=
EXTT10=
EXTT11=
EXTT12=
PLAYORDER=
